<svg width="102" height="48" viewBox="0 0 102 48" fill="none" xmlns="http://www.w3.org/2000/svg">
<rect width="102" height="48" rx="10" fill="#000050"/>
<path d="M32.0286 27.632C32.1139 27.632 32.1886 27.6667 32.2526 27.736L32.8686 28.4C32.3993 28.944 31.8286 29.368 31.1566 29.672C30.4899 29.976 29.6819 30.128 28.7326 30.128C27.9113 30.128 27.1646 29.9867 26.4926 29.704C25.8206 29.416 25.2473 29.016 24.7726 28.504C24.2979 27.9867 23.9299 27.368 23.6686 26.648C23.4073 25.928 23.2766 25.136 23.2766 24.272C23.2766 23.408 23.4126 22.616 23.6846 21.896C23.9566 21.176 24.3379 20.5573 24.8286 20.04C25.3246 19.5227 25.9166 19.1227 26.6046 18.84C27.2926 18.552 28.0526 18.408 28.8846 18.408C29.7006 18.408 30.4206 18.5387 31.0446 18.8C31.6686 19.0613 32.2179 19.416 32.6926 19.864L32.1806 20.576C32.1486 20.6293 32.1059 20.6747 32.0526 20.712C32.0046 20.744 31.9379 20.76 31.8526 20.76C31.7566 20.76 31.6393 20.7093 31.5006 20.608C31.3619 20.5013 31.1806 20.384 30.9566 20.256C30.7326 20.128 30.4526 20.0133 30.1166 19.912C29.7806 19.8053 29.3673 19.752 28.8766 19.752C28.2846 19.752 27.7433 19.856 27.2526 20.064C26.7619 20.2667 26.3379 20.5627 25.9806 20.952C25.6286 21.3413 25.3539 21.816 25.1566 22.376C24.9593 22.936 24.8606 23.568 24.8606 24.272C24.8606 24.9867 24.9619 25.624 25.1646 26.184C25.3726 26.744 25.6526 27.2187 26.0046 27.608C26.3619 27.992 26.7806 28.2853 27.2606 28.488C27.7459 28.6907 28.2686 28.792 28.8286 28.792C29.1699 28.792 29.4766 28.7733 29.7486 28.736C30.0259 28.6933 30.2793 28.6293 30.5086 28.544C30.7433 28.4587 30.9593 28.352 31.1566 28.224C31.3593 28.0907 31.5593 27.9333 31.7566 27.752C31.8473 27.672 31.9379 27.632 32.0286 27.632ZM38.7241 26.352C38.0681 26.3733 37.5081 26.4267 37.0441 26.512C36.5854 26.592 36.2094 26.6987 35.9161 26.832C35.6281 26.9653 35.4174 27.1227 35.2841 27.304C35.1561 27.4853 35.0921 27.688 35.0921 27.912C35.0921 28.1253 35.1268 28.3093 35.1961 28.464C35.2654 28.6187 35.3588 28.7467 35.4761 28.848C35.5988 28.944 35.7401 29.016 35.9001 29.064C36.0654 29.1067 36.2414 29.128 36.4281 29.128C36.6788 29.128 36.9081 29.104 37.1161 29.056C37.3241 29.0027 37.5188 28.928 37.7001 28.832C37.8868 28.736 38.0628 28.6213 38.2281 28.488C38.3988 28.3547 38.5641 28.2027 38.7241 28.032V26.352ZM34.1241 23.04C34.5721 22.608 35.0548 22.2853 35.5721 22.072C36.0894 21.8587 36.6628 21.752 37.2921 21.752C37.7454 21.752 38.1481 21.8267 38.5001 21.976C38.8521 22.1253 39.1481 22.3333 39.3881 22.6C39.6281 22.8667 39.8094 23.1893 39.9321 23.568C40.0548 23.9467 40.1161 24.3627 40.1161 24.816V30H39.4841C39.3454 30 39.2388 29.9787 39.1641 29.936C39.0894 29.888 39.0308 29.7973 38.9881 29.664L38.8281 28.896C38.6148 29.0933 38.4068 29.2693 38.2041 29.424C38.0014 29.5733 37.7881 29.7013 37.5641 29.808C37.3401 29.9093 37.1001 29.9867 36.8441 30.04C36.5934 30.0987 36.3134 30.128 36.0041 30.128C35.6894 30.128 35.3934 30.0853 35.1161 30C34.8388 29.9093 34.5961 29.776 34.3881 29.6C34.1854 29.424 34.0228 29.2027 33.9001 28.936C33.7828 28.664 33.7241 28.344 33.7241 27.976C33.7241 27.656 33.8121 27.3493 33.9881 27.056C34.1641 26.7573 34.4494 26.4933 34.8441 26.264C35.2388 26.0347 35.7534 25.848 36.3881 25.704C37.0228 25.5547 37.8014 25.4693 38.7241 25.448V24.816C38.7241 24.1867 38.5881 23.712 38.3161 23.392C38.0441 23.0667 37.6468 22.904 37.1241 22.904C36.7721 22.904 36.4761 22.9493 36.2361 23.04C36.0014 23.1253 35.7961 23.224 35.6201 23.336C35.4494 23.4427 35.3001 23.5413 35.1721 23.632C35.0494 23.7173 34.9268 23.76 34.8041 23.76C34.7081 23.76 34.6254 23.736 34.5561 23.688C34.4868 23.6347 34.4281 23.5707 34.3801 23.496L34.1241 23.04ZM43.7572 18.216V30H42.3332V18.216H43.7572ZM51.7065 23.336C51.6638 23.3947 51.6211 23.44 51.5785 23.472C51.5358 23.504 51.4771 23.52 51.4025 23.52C51.3225 23.52 51.2345 23.488 51.1385 23.424C51.0425 23.3547 50.9225 23.28 50.7785 23.2C50.6398 23.12 50.4665 23.048 50.2585 22.984C50.0558 22.9147 49.8051 22.88 49.5065 22.88C49.1065 22.88 48.7545 22.952 48.4505 23.096C48.1465 23.2347 47.8905 23.4373 47.6825 23.704C47.4798 23.9707 47.3251 24.2933 47.2185 24.672C47.1171 25.0507 47.0665 25.4747 47.0665 25.944C47.0665 26.4347 47.1225 26.872 47.2345 27.256C47.3465 27.6347 47.5038 27.9547 47.7065 28.216C47.9145 28.472 48.1625 28.6693 48.4505 28.808C48.7438 28.9413 49.0718 29.008 49.4345 29.008C49.7811 29.008 50.0665 28.968 50.2905 28.888C50.5145 28.8027 50.6985 28.7093 50.8425 28.608C50.9918 28.5067 51.1145 28.416 51.2105 28.336C51.3118 28.2507 51.4105 28.208 51.5065 28.208C51.6238 28.208 51.7145 28.2533 51.7785 28.344L52.1785 28.864C52.0025 29.0827 51.8025 29.2693 51.5785 29.424C51.3545 29.5787 51.1118 29.7093 50.8505 29.816C50.5945 29.9173 50.3251 29.992 50.0425 30.04C49.7598 30.088 49.4718 30.112 49.1785 30.112C48.6718 30.112 48.1998 30.0187 47.7625 29.832C47.3305 29.6453 46.9545 29.376 46.6345 29.024C46.3145 28.6667 46.0638 28.2293 45.8825 27.712C45.7011 27.1947 45.6105 26.6053 45.6105 25.944C45.6105 25.3413 45.6931 24.784 45.8585 24.272C46.0291 23.76 46.2745 23.32 46.5945 22.952C46.9198 22.5787 47.3171 22.288 47.7865 22.08C48.2611 21.872 48.8051 21.768 49.4185 21.768C49.9891 21.768 50.4905 21.8613 50.9225 22.048C51.3598 22.2293 51.7465 22.488 52.0825 22.824L51.7065 23.336ZM60.3711 21.896V30H59.5231C59.3204 30 59.1924 29.9013 59.1391 29.704L59.0271 28.832C58.6751 29.2213 58.2804 29.536 57.8431 29.776C57.4058 30.0107 56.9044 30.128 56.3391 30.128C55.8964 30.128 55.5044 30.056 55.1631 29.912C54.8271 29.7627 54.5444 29.5547 54.3151 29.288C54.0858 29.0213 53.9124 28.6987 53.7951 28.32C53.6831 27.9413 53.6271 27.5227 53.6271 27.064V21.896H55.0511V27.064C55.0511 27.6773 55.1898 28.152 55.4671 28.488C55.7498 28.824 56.1791 28.992 56.7551 28.992C57.1764 28.992 57.5684 28.8933 57.9311 28.696C58.2991 28.4933 58.6378 28.216 58.9471 27.864V21.896H60.3711ZM64.101 18.216V30H62.677V18.216H64.101ZM70.8022 26.352C70.1462 26.3733 69.5862 26.4267 69.1222 26.512C68.6636 26.592 68.2876 26.6987 67.9942 26.832C67.7062 26.9653 67.4956 27.1227 67.3622 27.304C67.2342 27.4853 67.1702 27.688 67.1702 27.912C67.1702 28.1253 67.2049 28.3093 67.2742 28.464C67.3436 28.6187 67.4369 28.7467 67.5542 28.848C67.6769 28.944 67.8182 29.016 67.9782 29.064C68.1436 29.1067 68.3196 29.128 68.5062 29.128C68.7569 29.128 68.9862 29.104 69.1942 29.056C69.4022 29.0027 69.5969 28.928 69.7782 28.832C69.9649 28.736 70.1409 28.6213 70.3062 28.488C70.4769 28.3547 70.6422 28.2027 70.8022 28.032V26.352ZM66.2022 23.04C66.6502 22.608 67.1329 22.2853 67.6502 22.072C68.1676 21.8587 68.7409 21.752 69.3702 21.752C69.8236 21.752 70.2262 21.8267 70.5782 21.976C70.9302 22.1253 71.2262 22.3333 71.4662 22.6C71.7062 22.8667 71.8876 23.1893 72.0102 23.568C72.1329 23.9467 72.1942 24.3627 72.1942 24.816V30H71.5622C71.4236 30 71.3169 29.9787 71.2422 29.936C71.1676 29.888 71.1089 29.7973 71.0662 29.664L70.9062 28.896C70.6929 29.0933 70.4849 29.2693 70.2822 29.424C70.0796 29.5733 69.8662 29.7013 69.6422 29.808C69.4182 29.9093 69.1782 29.9867 68.9222 30.04C68.6716 30.0987 68.3916 30.128 68.0822 30.128C67.7676 30.128 67.4716 30.0853 67.1942 30C66.9169 29.9093 66.6742 29.776 66.4662 29.6C66.2636 29.424 66.1009 29.2027 65.9782 28.936C65.8609 28.664 65.8022 28.344 65.8022 27.976C65.8022 27.656 65.8902 27.3493 66.0662 27.056C66.2422 26.7573 66.5276 26.4933 66.9222 26.264C67.3169 26.0347 67.8316 25.848 68.4662 25.704C69.1009 25.5547 69.8796 25.4693 70.8022 25.448V24.816C70.8022 24.1867 70.6662 23.712 70.3942 23.392C70.1222 23.0667 69.7249 22.904 69.2022 22.904C68.8502 22.904 68.5542 22.9493 68.3142 23.04C68.0796 23.1253 67.8742 23.224 67.6982 23.336C67.5276 23.4427 67.3782 23.5413 67.2502 23.632C67.1276 23.7173 67.0049 23.76 66.8822 23.76C66.7862 23.76 66.7036 23.736 66.6342 23.688C66.5649 23.6347 66.5062 23.5707 66.4582 23.496L66.2022 23.04ZM75.7154 23.52C75.9714 22.9653 76.286 22.5333 76.6594 22.224C77.0327 21.9093 77.4887 21.752 78.0274 21.752C78.198 21.752 78.3607 21.7707 78.5154 21.808C78.6754 21.8453 78.8167 21.904 78.9394 21.984L78.8354 23.048C78.8034 23.1813 78.7234 23.248 78.5954 23.248C78.5207 23.248 78.4114 23.232 78.2674 23.2C78.1234 23.168 77.9607 23.152 77.7794 23.152C77.5234 23.152 77.294 23.1893 77.0914 23.264C76.894 23.3387 76.7154 23.4507 76.5554 23.6C76.4007 23.744 76.2594 23.9253 76.1314 24.144C76.0087 24.3573 75.8967 24.6027 75.7954 24.88V30H74.3634V21.896H75.1794C75.334 21.896 75.4407 21.9253 75.4994 21.984C75.558 22.0427 75.598 22.144 75.6194 22.288L75.7154 23.52Z" fill="white"/>
</svg>
