<svg width="102" height="48" viewBox="0 0 102 48" fill="none" xmlns="http://www.w3.org/2000/svg">
<rect width="102" height="48" rx="10" fill="#000050"/>
<path d="M34.2737 28.696V30H27.7697V18.536H29.3137V28.696H34.2737ZM37.1564 21.896V30H35.7324V21.896H37.1564ZM37.4604 19.352C37.4604 19.4907 37.4311 19.6213 37.3724 19.744C37.3191 19.8613 37.2444 19.968 37.1484 20.064C37.0577 20.1547 36.9484 20.2267 36.8204 20.28C36.6977 20.3333 36.5671 20.36 36.4284 20.36C36.2897 20.36 36.1591 20.3333 36.0364 20.28C35.9191 20.2267 35.8151 20.1547 35.7244 20.064C35.6337 19.968 35.5617 19.8613 35.5084 19.744C35.4551 19.6213 35.4284 19.4907 35.4284 19.352C35.4284 19.2133 35.4551 19.0827 35.5084 18.96C35.5617 18.832 35.6337 18.7227 35.7244 18.632C35.8151 18.536 35.9191 18.4613 36.0364 18.408C36.1591 18.3547 36.2897 18.328 36.4284 18.328C36.5671 18.328 36.6977 18.3547 36.8204 18.408C36.9484 18.4613 37.0577 18.536 37.1484 18.632C37.2444 18.7227 37.3191 18.832 37.3724 18.96C37.4311 19.0827 37.4604 19.2133 37.4604 19.352ZM39.4962 30V21.896H40.3522C40.5548 21.896 40.6802 21.9947 40.7282 22.192L40.8322 23.024C41.1308 22.656 41.4668 22.3547 41.8402 22.12C42.2135 21.8853 42.6455 21.768 43.1362 21.768C43.6802 21.768 44.1202 21.92 44.4562 22.224C44.7975 22.528 45.0428 22.9387 45.1922 23.456C45.3095 23.1627 45.4588 22.9093 45.6402 22.696C45.8268 22.4827 46.0348 22.3067 46.2642 22.168C46.4935 22.0293 46.7362 21.928 46.9922 21.864C47.2535 21.8 47.5175 21.768 47.7842 21.768C48.2108 21.768 48.5895 21.8373 48.9202 21.976C49.2562 22.1093 49.5388 22.3067 49.7682 22.568C50.0028 22.8293 50.1815 23.152 50.3042 23.536C50.4268 23.9147 50.4882 24.3493 50.4882 24.84V30H49.0562V24.84C49.0562 24.2053 48.9175 23.7253 48.6402 23.4C48.3628 23.0693 47.9628 22.904 47.4402 22.904C47.2055 22.904 46.9815 22.9467 46.7682 23.032C46.5602 23.112 46.3762 23.232 46.2162 23.392C46.0562 23.552 45.9282 23.7547 45.8322 24C45.7415 24.24 45.6962 24.52 45.6962 24.84V30H44.2642V24.84C44.2642 24.1893 44.1335 23.704 43.8722 23.384C43.6108 23.064 43.2295 22.904 42.7282 22.904C42.3762 22.904 42.0508 23 41.7522 23.192C41.4535 23.3787 41.1788 23.6347 40.9282 23.96V30H39.4962ZM54.0844 28.048C54.3457 28.4 54.6311 28.648 54.9404 28.792C55.2497 28.936 55.5964 29.008 55.9804 29.008C56.7377 29.008 57.3191 28.7387 57.7244 28.2C58.1297 27.6613 58.3324 26.8933 58.3324 25.896C58.3324 25.368 58.2844 24.9147 58.1884 24.536C58.0977 24.1573 57.9644 23.848 57.7884 23.608C57.6124 23.3627 57.3964 23.184 57.1404 23.072C56.8844 22.96 56.5937 22.904 56.2684 22.904C55.8044 22.904 55.3964 23.0107 55.0444 23.224C54.6977 23.4373 54.3777 23.7387 54.0844 24.128V28.048ZM54.0124 23.152C54.3537 22.7307 54.7484 22.392 55.1964 22.136C55.6444 21.88 56.1564 21.752 56.7324 21.752C57.2017 21.752 57.6257 21.8427 58.0044 22.024C58.3831 22.2 58.7057 22.464 58.9724 22.816C59.2391 23.1627 59.4444 23.5947 59.5884 24.112C59.7324 24.6293 59.8044 25.224 59.8044 25.896C59.8044 26.4933 59.7244 27.0507 59.5644 27.568C59.4044 28.08 59.1724 28.5253 58.8684 28.904C58.5697 29.2773 58.2017 29.5733 57.7644 29.792C57.3324 30.0053 56.8444 30.112 56.3004 30.112C55.8044 30.112 55.3777 30.0293 55.0204 29.864C54.6684 29.6933 54.3564 29.4587 54.0844 29.16V32.744H52.6524V21.896H53.5084C53.7111 21.896 53.8364 21.9947 53.8844 22.192L54.0124 23.152ZM66.0132 26.352C65.3572 26.3733 64.7972 26.4267 64.3332 26.512C63.8745 26.592 63.4985 26.6987 63.2052 26.832C62.9172 26.9653 62.7065 27.1227 62.5732 27.304C62.4452 27.4853 62.3812 27.688 62.3812 27.912C62.3812 28.1253 62.4158 28.3093 62.4852 28.464C62.5545 28.6187 62.6478 28.7467 62.7652 28.848C62.8878 28.944 63.0292 29.016 63.1892 29.064C63.3545 29.1067 63.5305 29.128 63.7172 29.128C63.9678 29.128 64.1972 29.104 64.4052 29.056C64.6132 29.0027 64.8078 28.928 64.9892 28.832C65.1758 28.736 65.3518 28.6213 65.5172 28.488C65.6878 28.3547 65.8532 28.2027 66.0132 28.032V26.352ZM61.4132 23.04C61.8612 22.608 62.3438 22.2853 62.8612 22.072C63.3785 21.8587 63.9518 21.752 64.5812 21.752C65.0345 21.752 65.4372 21.8267 65.7892 21.976C66.1412 22.1253 66.4372 22.3333 66.6772 22.6C66.9172 22.8667 67.0985 23.1893 67.2212 23.568C67.3438 23.9467 67.4052 24.3627 67.4052 24.816V30H66.7732C66.6345 30 66.5278 29.9787 66.4532 29.936C66.3785 29.888 66.3198 29.7973 66.2772 29.664L66.1172 28.896C65.9038 29.0933 65.6958 29.2693 65.4932 29.424C65.2905 29.5733 65.0772 29.7013 64.8532 29.808C64.6292 29.9093 64.3892 29.9867 64.1332 30.04C63.8825 30.0987 63.6025 30.128 63.2932 30.128C62.9785 30.128 62.6825 30.0853 62.4052 30C62.1278 29.9093 61.8852 29.776 61.6772 29.6C61.4745 29.424 61.3118 29.2027 61.1892 28.936C61.0718 28.664 61.0132 28.344 61.0132 27.976C61.0132 27.656 61.1012 27.3493 61.2772 27.056C61.4532 26.7573 61.7385 26.4933 62.1332 26.264C62.5278 26.0347 63.0425 25.848 63.6772 25.704C64.3118 25.5547 65.0905 25.4693 66.0132 25.448V24.816C66.0132 24.1867 65.8772 23.712 65.6052 23.392C65.3332 23.0667 64.9358 22.904 64.4132 22.904C64.0612 22.904 63.7652 22.9493 63.5252 23.04C63.2905 23.1253 63.0852 23.224 62.9092 23.336C62.7385 23.4427 62.5892 23.5413 62.4612 23.632C62.3385 23.7173 62.2158 23.76 62.0932 23.76C61.9972 23.76 61.9145 23.736 61.8452 23.688C61.7758 23.6347 61.7172 23.5707 61.6692 23.496L61.4132 23.04ZM70.9263 23.52C71.1823 22.9653 71.497 22.5333 71.8703 22.224C72.2436 21.9093 72.6996 21.752 73.2383 21.752C73.409 21.752 73.5716 21.7707 73.7263 21.808C73.8863 21.8453 74.0276 21.904 74.1503 21.984L74.0463 23.048C74.0143 23.1813 73.9343 23.248 73.8063 23.248C73.7316 23.248 73.6223 23.232 73.4783 23.2C73.3343 23.168 73.1716 23.152 72.9903 23.152C72.7343 23.152 72.505 23.1893 72.3023 23.264C72.105 23.3387 71.9263 23.4507 71.7663 23.6C71.6116 23.744 71.4703 23.9253 71.3423 24.144C71.2196 24.3573 71.1076 24.6027 71.0063 24.88V30H69.5743V21.896H70.3903C70.545 21.896 70.6516 21.9253 70.7103 21.984C70.769 22.0427 70.809 22.144 70.8303 22.288L70.9263 23.52Z" fill="white"/>
</svg>
